<?xml version="1.0" encoding="UTF-8"?>
<svg version="1.1" xmlns="http://www.w3.org/2000/svg" width="1024" height="1024">
<path d="M0 0 C337.92 0 675.84 0 1024 0 C1024 337.92 1024 675.84 1024 1024 C686.08 1024 348.16 1024 0 1024 C0 686.08 0 348.16 0 0 Z " fill="#070707" transform="translate(0,0)"/>
<path d="M0 0 C337.92 0 675.84 0 1024 0 C1024 337.92 1024 675.84 1024 1024 C686.08 1024 348.16 1024 0 1024 C0 686.08 0 348.16 0 0 Z M170 159 C169.15179688 159.68449219 168.30359375 160.36898437 167.4296875 161.07421875 C147.81075333 177.71033691 135.12281189 202.04162181 130 227 C129.83103285 227.81208028 129.6620657 228.62416057 129.48797834 229.46084934 C127.53341387 240.30040752 127.71514912 251.08829658 127.73257446 262.06761169 C127.72883396 264.30704513 127.72423085 266.54647725 127.71884382 268.78590733 C127.70664768 274.91653349 127.7068703 281.04710494 127.70923257 287.17774045 C127.70959954 293.11818445 127.70060679 299.05861261 127.69200679 304.99904878 C127.67270338 318.64430965 127.66703991 332.28955546 127.66589268 345.93482839 C127.66497208 356.47781099 127.66084757 367.0207877 127.65449142 377.56376839 C127.65269621 380.60328914 127.65091658 383.6428099 127.64914167 386.68233067 C127.64869957 387.43806413 127.64825748 388.19379759 127.64780198 388.97243206 C127.63549974 410.21969321 127.62760021 431.46695232 127.62848854 452.71421719 C127.6285197 453.51468015 127.62855086 454.31514312 127.62858296 455.13986254 C127.62874916 459.19652943 127.62894724 463.25319632 127.62915237 467.3098632 C127.62921221 468.51826683 127.62921221 468.51826683 127.62927325 469.75108265 C127.62935413 471.38020712 127.62943772 473.00933159 127.62952404 474.63845605 C127.63074881 499.9698498 127.61574731 525.30118995 127.58837891 550.63256836 C127.5576094 579.12333138 127.54044939 607.61405919 127.54230535 636.10483986 C127.5424546 639.14718982 127.54255202 642.18953977 127.54261398 645.23188972 C127.54263729 645.98093578 127.5426606 646.72998183 127.54268462 647.50172624 C127.54274598 659.51849968 127.53001318 671.53522633 127.51274945 683.55198589 C127.4957355 695.64568067 127.49386395 707.73930752 127.5069681 719.83300769 C127.51367629 726.3754584 127.5136839 732.9177748 127.4962616 739.46021271 C127.48044132 745.46310286 127.48348547 751.4656925 127.50082986 757.46857572 C127.50388015 759.62670832 127.50034289 761.78486386 127.48910971 763.94296937 C127.30874608 801.08922682 137.49231086 834.35057051 163.75 861.1875 C186.4572264 883.64834391 218.46325502 896.19863662 250.36468983 896.13142776 C251.27995004 896.1334804 252.19521025 896.13553303 253.13820562 896.13764787 C256.20370772 896.14330021 259.26916464 896.14186279 262.33467102 896.14044189 C264.55542702 896.14302655 266.77618256 896.14603999 268.99693745 896.1494453 C275.09903317 896.15750691 281.20111712 896.1593044 287.30321753 896.16004276 C293.2089376 896.16170458 299.11465157 896.16802373 305.02036846 896.17412117 C320.83976682 896.19016464 336.6591642 896.1960829 352.47856923 896.20086992 C359.96711391 896.20320786 367.45565784 896.20681076 374.94420193 896.2105653 C400.59426407 896.2234003 426.24432578 896.23411877 451.89439106 896.2375679 C453.50393594 896.23778953 455.11348081 896.23801132 456.72302569 896.23823325 C458.33639275 896.23845389 459.9497598 896.23867437 461.56312686 896.2388947 C464.79965293 896.23933725 468.03617901 896.23978436 471.27270508 896.24023438 C472.47640639 896.24039846 472.47640639 896.24039846 473.7044249 896.24056586 C499.70914465 896.24419438 525.71383649 896.26010693 551.71854556 896.28342474 C579.23232707 896.30805044 606.74609264 896.32174204 634.25988549 896.32293582 C637.28344262 896.32310726 640.30699974 896.32332269 643.33055687 896.32357025 C644.07500509 896.32362602 644.81945331 896.32368179 645.58646056 896.32373925 C657.53993539 896.32488741 669.49338146 896.33588949 681.44684659 896.35045731 C693.47499675 896.364862 705.50311025 896.36803697 717.53126667 896.36001733 C724.04088664 896.35596829 730.55042958 896.35700003 737.06003952 896.37107468 C743.02961814 896.38386319 748.99902866 896.38257271 754.96860721 896.37048396 C757.11808787 896.36853551 759.26758064 896.3715656 761.41704432 896.38032833 C799.24758524 896.52467833 832.97235314 886.43410172 861 860 C861.68835938 859.37609375 862.37671875 858.7521875 863.0859375 858.109375 C882.99115928 839.38430471 894.93580756 808.83979195 896.09323159 781.82383977 C896.12982609 779.4403535 896.13647423 777.05868819 896.13142776 774.67492485 C896.1334804 773.76394018 896.13553303 772.8529555 896.13764787 771.91436523 C896.14329991 768.86337782 896.14186283 765.8124358 896.14044189 762.76144409 C896.14302658 760.55107577 896.14604003 758.34070791 896.1494453 756.1303407 C896.15750678 750.05683996 896.1593044 743.98335104 896.16004276 737.90984559 C896.16170463 732.03161515 896.16802387 726.15339084 896.17412117 720.2751636 C896.19016543 704.52818264 896.19608327 688.78120267 896.20086992 673.034215 C896.20320808 665.57856391 896.20681104 658.12291359 896.2105653 650.6672631 C896.22340122 625.12595908 896.23411894 599.58465549 896.2375679 574.04334831 C896.23778953 572.44056092 896.23801132 570.83777353 896.23823325 569.23498613 C896.23845389 567.62840319 896.23867437 566.02182025 896.2388947 564.41523731 C896.23933724 561.19235221 896.23978436 557.96946712 896.24023438 554.74658203 C896.24034377 553.94749645 896.24045316 553.14841087 896.24056586 552.32511058 C896.24419321 526.43836372 896.26010089 500.55164492 896.28342474 474.6649088 C896.30806088 447.27137569 896.32174255 419.87785859 896.32293582 392.48431408 C896.32310726 389.47277967 896.32332268 386.46124526 896.32357025 383.44971085 C896.3236539 382.33749137 896.3236539 382.33749137 896.32373925 381.20280282 C896.32488659 369.30571038 896.33588186 357.40864688 896.35045731 345.5115642 C896.3648756 333.53489164 896.36802941 321.5582559 896.36001733 309.58157705 C896.35612379 303.10195715 896.3569768 296.62243394 896.37107468 290.14282608 C896.38389185 284.19714583 896.38254801 278.25163415 896.37048396 272.30595388 C896.36854039 270.16853281 896.37154248 268.03109947 896.38032833 265.89369558 C896.5289961 227.24178437 887.89408532 194.12691691 860.75 165.4375 C839.1878047 144.7179652 810.5265664 132.97529475 781 130 C780.26118637 129.91778236 779.52237273 129.83556471 778.7611708 129.75085562 C768.55463592 128.7411703 758.35311802 128.85772072 748.10890198 128.86628723 C745.98511446 128.8644171 743.86132729 128.8621156 741.73754066 128.85942191 C735.92197974 128.85332229 730.10643322 128.85343534 724.29086983 128.85461628 C718.01045456 128.85482076 711.73004386 128.84929701 705.44963074 128.84455872 C693.15180592 128.83626131 680.85398688 128.83349129 668.55615962 128.83294634 C658.55519457 128.83248607 648.55423107 128.83042398 638.55326653 128.82724571 C635.6701811 128.82634811 632.78709567 128.82545829 629.90401024 128.82457083 C629.18717429 128.82434979 628.47033835 128.82412874 627.73178011 128.82390099 C607.57730089 128.81774962 587.42282221 128.81380013 567.26834202 128.81424427 C566.12934085 128.81426764 566.12934085 128.81426764 564.96732955 128.81429148 C561.11908725 128.81437458 557.27084496 128.81447362 553.42260266 128.81457619 C552.27628219 128.8146061 552.27628219 128.8146061 551.10680373 128.81463663 C549.56137717 128.81467706 548.01595061 128.81471886 546.47052405 128.81476202 C522.44168771 128.81537438 498.4128655 128.80787428 474.3840332 128.79418945 C447.35896034 128.7788044 420.33389675 128.77022472 393.30881923 128.77115268 C390.42290461 128.7712273 387.53698999 128.77127601 384.65107536 128.77130699 C383.58527772 128.77132447 383.58527772 128.77132447 382.49794882 128.77134231 C371.09927685 128.77137299 359.70061721 128.76500669 348.3019489 128.75637473 C336.82987817 128.74786736 325.35783164 128.74710277 313.88575829 128.75348405 C307.67966549 128.75673917 301.47361705 128.75684254 295.26752853 128.7481308 C289.5731301 128.74021996 283.87881087 128.74174363 278.18441426 128.75041493 C276.13730618 128.75193991 274.09019206 128.75017215 272.04309113 128.74455485 C234.78175244 128.64917765 199.49862691 134.58881744 170 159 Z " fill="#070707" transform="translate(0,0)"/>
<path d="M0 0 C2.12465057 -0.0018705 4.2493008 -0.00417216 6.37395048 -0.00686532 C12.18725206 -0.01296023 18.00053921 -0.01285245 23.81384325 -0.01167095 C30.09355928 -0.01146635 36.37327074 -0.01699132 42.65298462 -0.02172852 C54.94733021 -0.03002317 67.24167004 -0.03279581 79.53601807 -0.03334089 C89.53409879 -0.03380126 99.53217796 -0.03586387 109.53025818 -0.03904152 C112.41308069 -0.03993913 115.2959032 -0.04082895 118.17872572 -0.0417164 C118.8955044 -0.04193744 119.61228309 -0.04215849 120.35078234 -0.04238624 C140.50133369 -0.0485369 160.6518845 -0.05248717 180.80243683 -0.05204296 C181.94103898 -0.05201959 181.94103898 -0.05201959 183.10264319 -0.05199575 C186.94949466 -0.05191265 190.79634613 -0.05181361 194.6431976 -0.05171105 C195.4071289 -0.0516911 196.17106021 -0.05167115 196.95814095 -0.05165061 C198.50299584 -0.05161017 200.04785074 -0.05156837 201.59270563 -0.05152521 C225.61499178 -0.05091279 249.63726379 -0.05841434 273.6595459 -0.07209778 C300.679865 -0.08748278 327.70017481 -0.09606253 354.72049856 -0.09513456 C357.60583591 -0.09505993 360.49117327 -0.09501122 363.37651062 -0.09498024 C364.08689588 -0.09496859 364.79728114 -0.09495693 365.52919323 -0.09494492 C376.92502074 -0.09491424 388.32083591 -0.10128023 399.71665976 -0.1099125 C411.18524782 -0.11841975 422.65381168 -0.11918454 434.12240237 -0.11280318 C440.32647686 -0.10954809 446.53050697 -0.10944463 452.73457718 -0.11815643 C458.4270853 -0.12606728 464.11951419 -0.1245436 469.81202048 -0.1158723 C471.85842572 -0.11434734 473.90483701 -0.11611504 475.95123512 -0.12173238 C492.91221645 -0.16516242 510.35025283 0.1053527 526.86364746 4.38371277 C527.72748047 4.59987244 528.59131348 4.8160321 529.48132324 5.03874207 C561.05594401 13.25306327 589.00835932 32.94812267 605.70202637 61.15641785 C619.74930838 85.82330335 622.30355885 111.64484509 622.24934387 139.48147583 C622.25236991 141.7024632 622.25626164 143.92344952 622.26093644 146.14443403 C622.27116667 152.20533891 622.26904738 158.26618431 622.26475585 164.32709396 C622.26253442 170.20566103 622.26971291 176.08421216 622.2765161 181.96277462 C622.29170636 195.45800299 622.29346638 208.95321251 622.29099307 222.44844764 C622.28915626 232.87218478 622.29092814 243.2959158 622.29521751 253.71965218 C622.29581993 255.22030269 622.29642113 256.7209532 622.29702112 258.22160371 C622.29792842 260.48326562 622.2988371 262.74492752 622.29975347 265.00658943 C622.30817526 286.01665844 622.31252396 307.02672515 622.30834675 328.03679562 C622.30819037 328.82779823 622.308034 329.61880085 622.30787288 330.43377324 C622.30706717 334.44236938 622.30622139 338.45096551 622.30535958 342.45956164 C622.30518849 343.25560185 622.3050174 344.05164206 622.30484113 344.8718047 C622.30449447 346.4815877 622.30414594 348.09137071 622.30379555 349.70115371 C622.29843798 374.75119708 622.30637295 399.80120526 622.3248291 424.85124207 C622.34556742 453.03142785 622.35626848 481.21159184 622.35225362 509.39178568 C622.3518583 512.39917632 622.35149675 515.40656695 622.35115623 518.4139576 C622.3510655 519.15438843 622.35097477 519.89481927 622.35088129 520.65768741 C622.34971783 531.81005905 622.3563443 542.96240858 622.36696815 554.1147747 C622.37904392 566.80378573 622.38055166 579.49274823 622.36817799 592.18176001 C622.36229737 598.65081799 622.36116745 605.11978123 622.37318039 611.58883286 C622.38406578 617.51976243 622.3809042 623.45051845 622.36691871 629.38143999 C622.36427914 631.51784623 622.36661481 633.6542662 622.37465457 635.79065894 C622.50037738 671.71477358 613.24862008 703.73384969 587.98864746 730.13371277 C587.37763184 730.80789246 586.76661621 731.48207214 586.13708496 732.17668152 C565.92587114 753.7209754 533.99872861 765.97522711 504.8020577 767.22749749 C502.40792836 767.26355214 500.01556179 767.27018325 497.62116432 767.26514053 C496.24782461 767.26821948 496.24782461 767.26821948 494.84674066 767.27136064 C491.78022925 767.27701299 488.713763 767.27557556 485.64724731 767.27415466 C483.42577862 767.27673932 481.20431039 767.27975276 478.9828428 767.28315806 C472.87881647 767.29121967 466.77480191 767.29301717 460.67077088 767.29375553 C454.76322897 767.29541734 448.85569316 767.30173647 442.94815443 767.30783394 C427.12429578 767.32387709 411.30043812 767.32979554 395.4765728 767.33458269 C387.98636507 767.33692056 380.49615809 767.34052345 373.00595095 767.34427807 C347.35144962 767.35711276 321.6969487 767.36783148 296.04244423 767.37128067 C294.43264525 767.3715023 292.82284627 767.37172408 291.21304729 767.37194602 C289.59942219 767.37216666 287.98579709 767.37238714 286.372172 767.37260747 C283.13511825 767.37305001 279.89806449 767.37349713 276.66101074 767.37394714 C275.45711329 767.37411123 275.45711329 767.37411123 274.22889468 767.37427863 C248.21718515 767.37790753 222.20550353 767.39382167 196.19380468 767.41713751 C168.67409275 767.44175982 141.15439675 767.45545464 113.63467348 767.45664859 C110.61085343 767.45682003 107.58703339 767.45703546 104.56321335 767.45728302 C103.44643988 767.45736667 103.44643988 767.45736667 102.30710534 767.45745202 C90.3497137 767.45860044 78.39235079 767.46960472 66.43496883 767.48417008 C54.40459557 767.49857036 42.37425894 767.5017522 30.34387942 767.4937301 C23.83235809 767.48967945 17.32091378 767.4907203 10.80940247 767.50478745 C4.83925935 767.51756669 -1.13071562 767.51629351 -7.10085864 767.50419673 C-9.2516674 767.50224669 -11.40248823 767.50528582 -13.55328004 767.5140411 C-50.5858727 767.65515113 -84.25848119 757.62792376 -111.01135254 731.13371277 C-111.75900879 730.44664246 -112.50666504 729.75957214 -113.27697754 729.05168152 C-134.40895457 709.29245103 -144.94349133 677.83792782 -146.37781417 649.56774473 C-146.56410951 643.69740224 -146.54121675 637.82940222 -146.51255798 631.95689392 C-146.51646134 629.70684021 -146.52211001 627.45678899 -146.52932888 625.20674348 C-146.54395225 619.08865429 -146.53398109 612.97082593 -146.51959217 606.85274553 C-146.50956304 600.91196369 -146.5184835 594.97121657 -146.5267161 589.03043854 C-146.54382493 576.14658747 -146.53842076 563.26282203 -146.52335892 550.37897282 C-146.51026642 539.10607285 -146.505119 527.83320247 -146.50767708 516.5602951 C-146.50783749 515.81024697 -146.50799791 515.06019884 -146.50816319 514.28742198 C-146.50882685 511.2421739 -146.50952928 508.19692582 -146.51028853 505.15167776 C-146.51729915 476.6353318 -146.50186537 448.11903791 -146.47566507 419.6027052 C-146.45254369 394.30345441 -146.44716677 369.0042608 -146.45739746 343.70500183 C-146.45999977 337.22286354 -146.46258487 330.74072525 -146.46499538 324.25858688 C-146.46529283 323.46039482 -146.46559028 322.66220276 -146.46589674 321.83982307 C-146.47352115 300.65537511 -146.46709114 279.47093179 -146.45629936 258.28648591 C-146.45515164 256.00559548 -146.45400846 253.72470505 -146.45287254 251.44381461 C-146.4521173 249.93094609 -146.45135165 248.41807758 -146.45057553 246.90520907 C-146.44493179 235.6404678 -146.44623719 224.37574137 -146.45080376 213.11100006 C-146.45592451 200.29767064 -146.45000109 187.48439648 -146.42990946 174.6710808 C-146.4199291 168.13921714 -146.41490056 161.60742427 -146.42280197 155.07555389 C-146.42989723 149.08745322 -146.42296471 143.09953296 -146.40519834 137.11145595 C-146.40117876 134.95434127 -146.40211142 132.79720995 -146.40871721 130.64010164 C-146.45485184 114.15408913 -145.34747082 98.21303967 -139.88635254 82.50871277 C-139.58777344 81.63609802 -139.28919434 80.76348328 -138.98156738 79.86442566 C-134.23171106 66.56847235 -126.89777419 55.04630237 -118.01135254 44.13371277 C-117.36553223 43.33449402 -116.71971191 42.53527527 -116.05432129 41.71183777 C-94.4651692 16.20937705 -61.05364475 3.47261833 -28.53427887 0.605937 C-19.03132966 -0.10209946 -9.52423435 -0.00797666 0 0 Z M-86.82385254 71.07121277 C-93.133733 78.42525494 -97.11117762 85.76503851 -100.26135254 94.88371277 C-100.50780518 95.5856073 -100.75425781 96.28750183 -101.00817871 97.01066589 C-105.5493328 110.96219633 -105.30058938 125.32090947 -105.27204895 139.81027222 C-105.27507337 141.99495935 -105.27896431 144.17964542 -105.28364152 146.36432964 C-105.29389287 152.33886958 -105.29174699 158.31334932 -105.28746092 164.28789413 C-105.28498847 170.74274771 -105.29401434 177.197587 -105.30149841 183.6524353 C-105.31465491 196.28754364 -105.31604635 208.92263297 -105.31369815 221.55774679 C-105.31186232 231.83137549 -105.31363117 242.10499795 -105.31792259 252.37862587 C-105.31852501 253.85696816 -105.3191262 255.33531044 -105.3197262 256.81365273 C-105.32063349 259.0416489 -105.32154216 261.26964508 -105.32245855 263.49764125 C-105.33088309 284.20155374 -105.33522726 304.9054639 -105.33105183 325.60937786 C-105.33089545 326.38919042 -105.33073907 327.16900299 -105.33057796 327.97244624 C-105.32977223 331.9244345 -105.32892646 335.87642275 -105.32806466 339.82841101 C-105.32789357 340.61322352 -105.32772248 341.39803604 -105.32754621 342.20663075 C-105.32719955 343.7937111 -105.32685102 345.38079145 -105.32650062 346.9678718 C-105.32114515 371.65492081 -105.32907094 396.34193409 -105.34753418 421.02897644 C-105.3682763 448.79530555 -105.37897262 476.56161253 -105.37495869 504.32794982 C-105.37456338 507.29187349 -105.37420183 510.25579716 -105.37386131 513.21972084 C-105.37377058 513.94945855 -105.37367985 514.67919627 -105.37358637 515.43104724 C-105.37242312 526.42034626 -105.37904794 537.40962283 -105.38967323 548.39891624 C-105.40175414 560.90608169 -105.40297422 573.41319438 -105.39088307 585.92036071 C-105.38500532 592.29635997 -105.38386442 598.67226313 -105.39588547 605.04825592 C-105.40678106 610.8954725 -105.40359727 616.74251318 -105.38962378 622.58972166 C-105.38698695 624.69460704 -105.38931117 626.79950637 -105.39735965 628.90437802 C-105.48982929 654.91167439 -102.80991964 679.83549961 -83.84729004 699.28605652 C-82.90208771 700.23538498 -81.95678099 701.18460951 -81.01135254 702.13371277 C-80.24049316 702.93937683 -79.46963379 703.74504089 -78.67541504 704.57511902 C-58.08255625 724.78142244 -29.64516704 726.45179821 -2.42922974 726.38768005 C-0.27922726 726.38998846 1.87077443 726.39316752 4.02077448 726.39713454 C9.89011551 726.40543913 15.75939102 726.40137706 21.6287322 726.39516211 C27.97378057 726.39062074 34.31881798 726.39762975 40.66386414 726.40312195 C52.36266901 726.41148762 64.06145074 726.41078201 75.76025672 726.40529901 C86.5710452 726.40025743 97.38182609 726.39895936 108.19261551 726.4013443 C108.9111901 726.40149707 109.62976469 726.40164984 110.37011428 726.40180724 C113.28745047 726.40242997 116.20478665 726.40306678 119.12212284 726.40372677 C146.46185881 726.409838 173.8015816 726.40430882 201.14131554 726.39353297 C225.39902699 726.38404455 249.65671744 726.3848901 273.91442871 726.39445496 C301.20282584 726.40517899 328.49121133 726.40940248 355.77961028 726.40323043 C358.69208948 726.40258905 361.60456868 726.40196337 364.51704788 726.4013443 C365.23411166 726.40118614 365.95117544 726.40102799 366.68996843 726.40086504 C377.48914043 726.39859599 388.28830399 726.40123968 399.08747482 726.40630341 C411.37575848 726.41203685 423.66401383 726.41036931 435.95229505 726.39974192 C442.21677476 726.39450193 448.48121195 726.39239983 454.7456913 726.39904022 C460.48973716 726.40503664 466.23370145 726.40166409 471.97774 726.39108512 C474.04620815 726.38886664 476.11468331 726.38995208 478.18314688 726.39483669 C507.67999828 726.45910277 535.54274944 723.53212206 557.44567871 701.73918152 C558.70444824 700.44947449 558.70444824 700.44947449 559.98864746 699.13371277 C560.65251465 698.49047058 561.31638184 697.84722839 562.00036621 697.18449402 C581.08081725 677.41800429 581.30305642 648.06685369 581.24261475 622.3731842 C581.24492358 620.2160558 581.24810292 618.05892818 581.25206923 615.90180218 C581.2603677 610.01752712 581.25631461 604.13331748 581.2500968 598.24904227 C581.245553 591.88634548 581.25256556 585.52365957 581.25805664 579.16096497 C581.26641945 567.43217409 581.2657183 555.7034063 581.2602337 543.97461432 C581.25519167 533.13836397 581.25389427 522.30212119 581.25627899 511.4658699 C581.25643176 510.74554233 581.25658453 510.02521476 581.25674193 509.28305907 C581.25736466 506.35863354 581.25800147 503.434208 581.25866146 500.50978248 C581.26477145 473.10941756 581.25924501 445.7090658 581.24846767 418.30870291 C581.23897532 393.99043743 581.23982834 369.67219291 581.24938965 345.35392761 C581.26010912 317.99889751 581.26434006 290.643879 581.25816512 263.28884709 C581.25752373 260.37053943 581.25689805 257.45223177 581.25627899 254.5339241 C581.25612084 253.8154214 581.25596268 253.0969187 581.25579973 252.3566432 C581.25352921 241.52853423 581.25617705 230.70043369 581.2612381 219.8723259 C581.26696615 207.55616639 581.26531478 195.24003513 581.25467661 182.92387806 C581.24943021 176.643561 581.24734562 170.36328639 581.25397491 164.08296967 C581.25995768 158.32801815 581.25662095 152.57314823 581.24601981 146.81820406 C581.24379566 144.7424168 581.24489978 142.66662258 581.24977139 140.59083985 C581.30671067 114.30149582 578.67788264 88.46797074 559.68493652 68.63639832 C542.83091449 51.80594467 521.13254125 42.08943368 497.22786009 41.99692297 C496.3967293 41.99869244 495.5655985 42.00046191 494.70928192 42.002285 C493.35023878 41.99920605 493.35023878 41.99920605 491.96374023 41.9960649 C488.92967046 41.99041331 485.89564635 41.99184988 482.86157227 41.99327087 C480.66342698 41.99068618 478.46528217 41.98767273 476.267138 41.98426747 C470.22765986 41.97620643 464.18819361 41.9744084 458.14871073 41.97367001 C452.30359747 41.97200813 446.45849039 41.96568899 440.61338035 41.95959159 C424.95771073 41.94354959 409.30204212 41.93763031 393.64636576 41.93284285 C386.23654526 41.93050505 378.82672553 41.92690219 371.41690564 41.92314747 C346.03984749 41.91031343 320.66278977 41.89959422 295.28572845 41.89614487 C293.69340679 41.89592324 292.10108513 41.89570145 290.50876346 41.89547952 C288.91265227 41.89525888 287.31654109 41.89503839 285.7204299 41.89481807 C282.51849461 41.89437552 279.31655931 41.8939284 276.11462402 41.89347839 C274.92378788 41.89331431 274.92378788 41.89331431 273.70889444 41.89314691 C247.97421608 41.88951729 222.2395659 41.87360007 196.50489833 41.85028803 C169.28069692 41.82567188 142.05651162 41.8119712 114.83229876 41.81077695 C111.84165477 41.8106055 108.8510108 41.81039008 105.86036682 41.81014252 C104.75583944 41.81005886 104.75583944 41.81005886 103.62899838 41.80997352 C91.79766893 41.80882462 79.96636849 41.79781638 68.13504883 41.78325546 C56.23465411 41.7688632 44.33429644 41.76566885 32.43389541 41.77369544 C25.99147353 41.77759796 19.54914891 41.77669162 13.10673904 41.76263809 C7.20208152 41.74987568 1.29759413 41.75111738 -4.60706323 41.7632288 C-6.73630224 41.76518173 -8.8655534 41.7621262 -10.99477535 41.75338444 C-40.63499751 41.63945659 -65.89808042 48.74572345 -86.82385254 71.07121277 Z " fill="#FDFDFD" transform="translate(274.0113525390625,128.8662872314453)"/>
<path d="M0 0 C81.84 0 163.68 0 248 0 C248 6.27 248 12.54 248 19 C246.453125 19.15855469 244.90625 19.31710937 243.3125 19.48046875 C224.8563948 21.49534685 205.84344757 23.85694072 192.46484375 38.1484375 C185.39453989 47.08530157 184.70545975 56.82312245 184.74171448 67.80853271 C184.73620092 69.74903389 184.73620092 69.74903389 184.73057598 71.72873712 C184.72061855 75.30932899 184.7229623 78.88982262 184.72730291 82.47042179 C184.72978373 86.33725697 184.72070414 90.20406663 184.71292114 94.07089233 C184.70088143 100.77311392 184.6957684 107.47531174 184.69503975 114.17754364 C184.69371109 123.89719792 184.67857034 133.6167949 184.65954458 143.33642891 C184.62869823 159.14550279 184.60454104 174.95457813 184.58666992 190.76367188 C184.58559724 191.70962771 184.58452456 192.65558354 184.58341938 193.63020471 C184.57162663 204.158213 184.56141934 214.68622189 184.55297852 225.2142334 C184.54990516 229.01912436 184.54681624 232.82401532 184.54370117 236.62890625 C184.54293583 237.56763988 184.54217049 238.50637352 184.54138196 239.47355363 C184.52823981 255.20031206 184.50351107 270.9270294 184.46995777 286.65375733 C184.44980246 296.32995092 184.43935961 306.00605618 184.44194698 315.68227091 C184.4429926 322.33700786 184.43317851 328.99167562 184.41530795 335.64638838 C184.40539353 339.46948342 184.3999901 343.29242521 184.40807533 347.11552811 C184.487203 388.74807251 180.56999496 432.27926993 152 465 C151.25492188 465.85464844 150.50984375 466.70929688 149.7421875 467.58984375 C147.52465752 470.08926314 145.27372449 472.55169338 143 475 C142.44957031 475.60457031 141.89914062 476.20914062 141.33203125 476.83203125 C111.40276847 508.38708114 64.21808772 521.58719015 21.96386719 523.109375 C-25.96716812 524.28307651 -77.8524459 515.86903981 -113.95263672 481.88623047 C-115.30451861 480.59370172 -116.65241097 479.29700386 -118 478 C-118.63164062 477.43152344 -119.26328125 476.86304688 -119.9140625 476.27734375 C-140.64918739 457.06541524 -155.56782385 424.58060203 -157.14086914 396.48388672 C-158.06262008 370.94745843 -152.37402473 346.91531681 -134.640625 327.57421875 C-117.49018711 311.11796525 -98.01630098 305.2647824 -74.76953125 305.6953125 C-55.08118044 306.47447536 -38.12884101 315.03049114 -24.828125 329.3359375 C-14.0055748 341.90799769 -9.21400013 357.7683797 -9.65625 374.2421875 C-11.79688794 397.64325227 -21.8982195 419.6658471 -40 435 C-50.09350274 442.92538176 -61.18103947 448.1532785 -73 453 C-69.34738492 463.4180499 -59.31467395 469.04493372 -50 474 C-36.74227892 480.18053181 -23.18118802 482.56036995 -8.625 482.4375 C-7.35857666 482.42992676 -6.09215332 482.42235352 -4.78735352 482.41455078 C13.65823414 482.09042515 29.87025945 477.37000656 43.23828125 464.05078125 C61.72503558 444.40741321 64.13968001 415.04202279 64.16062927 389.43263245 C64.16537056 387.98388487 64.17052283 386.53513858 64.17604691 385.08639377 C64.18984199 381.13246453 64.19750458 377.1785444 64.2040199 373.22459733 C64.21042603 369.82680356 64.22049052 366.42902447 64.23058056 363.03123993 C64.2637625 351.84946106 64.28539087 340.66767328 64.30378041 329.48586145 C64.30858221 326.573406 64.31356462 323.6609509 64.31858563 320.74849582 C64.34954472 302.64038782 64.37621149 284.53227652 64.39300442 266.42414951 C64.39695346 262.23808855 64.40095655 258.05202764 64.4050293 253.8659668 C64.40654184 252.30546048 64.40654184 252.30546048 64.40808494 250.71342879 C64.42510469 233.84776148 64.46623771 216.98224054 64.51705229 200.11664475 C64.56884952 182.7818488 64.59794863 165.44712819 64.6052013 148.11225551 C64.60985877 138.38683516 64.62456164 128.66165527 64.6649456 118.93631172 C64.69928096 110.6580604 64.71317027 102.38009308 64.70052146 94.10177464 C64.69470435 89.8813508 64.69849165 85.6615274 64.7286911 81.44119453 C64.75615553 77.57143774 64.7554798 73.70270508 64.73318065 69.83292448 C64.72997173 68.43935946 64.73674385 67.04572457 64.75497787 65.65227515 C64.89281692 54.43096622 61.93751083 46.9625164 55.8125 37.6875 C40.70359493 23.25010182 19.79329172 21.19925464 0 19 C0 12.73 0 6.46 0 0 Z " fill="#FEFEFE" transform="translate(444,247)"/>
<path d="M0 0 C4.95 0.99 4.95 0.99 10 2 C10 2.66 10 3.32 10 4 C2.25 3.125 2.25 3.125 0 2 C0 1.34 0 0.68 0 0 Z " fill="#0D0E0E" transform="translate(382,759)"/>
</svg>
