<?xml version="1.0" encoding="UTF-8"?>
<svg version="1.1" xmlns="http://www.w3.org/2000/svg" width="1024" height="1024">
<path d="M0 0 C337.92 0 675.84 0 1024 0 C1024 337.92 1024 675.84 1024 1024 C686.08 1024 348.16 1024 0 1024 C0 686.08 0 348.16 0 0 Z " fill="#FEFEFE" transform="translate(0,0)"/>
<path d="M0 0 C337.92 0 675.84 0 1024 0 C1024 337.92 1024 675.84 1024 1024 C686.08 1024 348.16 1024 0 1024 C0 686.08 0 348.16 0 0 Z M250.57946777 130.42996216 C249.54321085 130.46660315 248.50695394 130.50324415 247.43929529 130.54099548 C212.05194015 132.01167868 180.82834217 145.90890302 156.4375 171.6875 C145.05112158 184.70050391 137.53076292 199.99885537 132.6875 216.5 C132.44491455 217.31734619 132.2023291 218.13469238 131.95239258 218.97680664 C127.82558485 233.86628223 127.70946688 248.73059402 127.73930359 264.05583191 C127.73627869 266.26954299 127.73238751 268.48325302 127.72771102 270.69696122 C127.71746586 276.747122 127.71960396 282.79722329 127.72389162 288.84738886 C127.72611074 294.71284566 127.71893788 300.57828644 127.71213136 306.4437386 C127.6969298 319.9126989 127.69518236 333.38164033 127.69765439 346.85060742 C127.69949058 357.25578254 127.69772061 367.66095152 127.69342995 378.06612587 C127.69282753 379.56366342 127.69222633 381.06120098 127.69162634 382.55873853 C127.69071904 384.81569194 127.68981037 387.07264535 127.68889399 389.32959876 C127.68047012 410.30108089 127.67612482 431.27256072 127.68030071 452.2440443 C127.68045709 453.03384565 127.68061346 453.82364701 127.68077458 454.63738173 C127.6815803 458.63994705 127.68242607 462.64251236 127.68328788 466.64507767 C127.68345897 467.43992722 127.68363006 468.23477678 127.68380633 469.05371269 C127.68415299 470.66109006 127.68450152 472.26846744 127.68485192 473.87584481 C127.69020738 498.87858823 127.68228134 523.88129637 127.66381836 548.8840332 C127.6430742 577.00855613 127.6323803 605.13305721 127.63639385 633.25758821 C127.63678916 636.25999057 127.63715071 639.26239293 127.63749123 642.2647953 C127.63758196 643.00400115 127.63767269 643.74320699 127.63776617 644.50481301 C127.63892919 655.63444031 127.63230634 666.76404545 127.62167931 677.89366722 C127.60959588 690.56107686 127.60810436 703.22843789 127.62046947 715.8958483 C127.62634546 722.35298864 127.62749303 728.8100341 127.61546707 735.26716805 C127.6045655 741.18964678 127.60776228 747.11195191 127.62172876 753.03442267 C127.62436396 755.16554074 127.6220466 757.2966726 127.61399289 759.42777707 C127.48089544 797.30607109 136.90638787 831.40295926 164 859 C164.78375 859.80824219 165.5675 860.61648438 166.375 861.44921875 C191.01620338 885.37672874 224.17947211 893.09173776 257.47851562 893.20532227 C259.27703113 893.21492866 261.07554456 893.22493199 262.87405586 893.2352953 C267.83072101 893.26251611 272.78739556 893.28351315 277.74409533 893.30328512 C282.04097137 893.32111469 286.33782851 893.3423041 290.63468945 893.36342239 C304.99524164 893.43380632 319.35583441 893.49158851 333.71644878 893.5475688 C338.74718392 893.56742182 343.77791498 893.58821699 348.80864632 893.60900801 C431.37270856 893.94941374 513.93721835 894.11688358 619.83482525 894.17744256 C631.87009832 894.18309876 643.90536143 894.19278929 655.94062896 894.20556229 C671.57487774 894.22214879 687.20910611 894.23185763 702.84336436 894.22975016 C710.45441062 894.22887232 718.06542469 894.23096755 725.67646408 894.24187088 C732.03633708 894.2509606 738.39616583 894.2531749 744.75604261 894.24645953 C747.96366034 894.24326368 751.17117642 894.24419245 754.37878895 894.25187886 C779.78448717 894.35104839 779.78448717 894.35104839 804.6875 889.75 C805.47020264 889.53384033 806.25290527 889.31768066 807.05932617 889.0949707 C839.05273739 879.97211633 864.55486065 860.26446899 880.95483398 831.25756836 C884.86316721 824.06785603 888.03833453 816.82747082 890.4375 809 C890.77152832 807.91887939 890.77152832 807.91887939 891.11230469 806.81591797 C895.68834922 790.54592913 896.4375943 774.22564506 896.3742218 757.44296265 C896.37696836 755.22366064 896.38102553 753.00435995 896.38626546 750.78506243 C896.3967736 744.73811339 896.38877476 738.69131388 896.37751496 732.64437151 C896.36954013 726.77653855 896.37575954 720.90873091 896.38149153 715.04089783 C896.39337101 702.31175501 896.38836812 689.58266199 896.37621326 676.85352196 C896.36565032 665.71486052 896.36114117 654.576216 896.36250877 643.43754959 C896.3625928 642.69685454 896.36267683 641.9561595 896.36276341 641.19301915 C896.3631157 638.18583451 896.36349972 635.17864988 896.36392899 632.17146525 C896.36788805 604.00091158 896.35520408 575.83038778 896.33440243 547.65984266 C896.31603116 522.66319486 896.31022172 497.66657569 896.31567383 472.66992188 C896.31602026 471.06445417 896.31636636 469.45898647 896.31671212 467.85351877 C896.31688311 467.05978359 896.31705411 466.2660484 896.31723029 465.44826064 C896.31808391 461.45221351 896.31890769 457.45616638 896.31969929 453.46011925 C896.31985637 452.67165922 896.32001345 451.88319919 896.32017529 451.07084643 C896.32417002 430.14638447 896.31868354 409.22192526 896.310188 388.29746497 C896.30928101 386.04460544 896.30837536 383.79174591 896.30747276 381.53888638 C896.30687166 380.04457892 896.30626304 378.55027146 896.30564686 377.055964 C896.30143469 366.66227166 896.30084336 356.26858472 896.30275235 345.8748918 C896.30520076 332.47844717 896.30107959 319.08203152 896.28554235 305.68559478 C896.27831734 299.23084518 896.27420516 292.77613548 896.27878571 286.32138252 C896.28288211 280.40480066 896.2776401 274.48830096 896.26515963 268.57173152 C896.26224808 266.43944235 896.26264046 264.30714535 896.26680271 262.17485826 C896.29481361 246.38281075 895.94307243 230.6854852 891.375 215.4375 C891.11702637 214.56037354 890.85905273 213.68324707 890.59326172 212.77954102 C884.90970884 194.33565748 874.50191902 178.66761578 861 165 C860.16984375 164.14535156 859.3396875 163.29070312 858.484375 162.41015625 C834.79971133 139.41568983 802.32860506 130.9378823 770.17126465 130.79666138 C768.78847635 130.78724846 767.40569069 130.77743943 766.02290773 130.76727211 C762.24281126 130.74073921 758.46270331 130.7201756 754.68256426 130.70079499 C751.43280447 130.68342095 748.18306947 130.66268394 744.93332964 130.6419498 C735.12213908 130.57939654 725.31091108 130.52606401 715.49965477 130.47503424 C709.8170275 130.44540814 704.1344126 130.41373096 698.45179749 130.38187027 C615.84889349 129.92162732 533.24653153 129.84420419 450.6425401 129.87053815 C436.00566861 129.87511317 421.36880499 129.87413687 406.73193359 129.86962891 C389.29623618 129.86426074 371.86054334 129.8621705 354.42484522 129.86524117 C352.56949012 129.86555948 350.71413501 129.86587386 348.85877991 129.86618423 C347.49247781 129.86641565 347.49247781 129.86641565 346.09857365 129.86665174 C339.79446928 129.86750206 333.49036794 129.86608915 327.18626404 129.86370468 C319.57768392 129.86088595 311.9691141 129.86169303 304.36053514 129.86698543 C300.51217042 129.86957752 296.66382282 129.87070413 292.8154583 129.86733627 C278.73084901 129.85610901 264.65666927 129.91660563 250.57946777 130.42996216 Z " fill="#FEFEFE" transform="translate(0,0)"/>
<path d="M0 0 C3.91966991 0.00230711 7.83933579 -0.00125347 11.75900483 -0.00397992 C19.44194752 -0.00839881 27.12488036 -0.00747328 34.80782342 -0.00456728 C41.14775253 -0.00227429 47.48767894 -0.00201729 53.82760835 -0.0030911 C55.2016015 -0.00332095 55.2016015 -0.00332095 56.6033521 -0.00355544 C58.4682109 -0.00387538 60.33306969 -0.0041996 62.19792849 -0.00452803 C79.6932475 -0.00737762 97.18856128 -0.00411599 114.68387944 0.00127234 C129.27707487 0.00563208 143.8702621 0.00500035 158.46345735 0.00035357 C240.97714463 -0.02506186 323.49011095 0.05469263 406.00288913 0.47211616 C412.56435286 0.50495274 419.12582598 0.53317547 425.68731904 0.55943179 C433.60216991 0.59129328 441.51694712 0.63031788 449.43171561 0.67858598 C453.44886527 0.70297968 457.46597069 0.7245525 461.48317361 0.73789144 C465.16721637 0.75027924 468.85109387 0.77186317 472.53504592 0.80039503 C474.47462943 0.81321404 476.41426767 0.81675909 478.35389113 0.81981146 C512.57069567 1.13684006 543.68741065 12.88355429 567.96882844 37.13072467 C568.83121125 37.98150592 569.69359406 38.83228717 570.58210969 39.70884967 C583.40822334 53.03364581 591.55966831 69.29778918 596.71882844 86.94322467 C596.9177469 87.60499713 597.11666535 88.26676959 597.32161164 88.94859576 C601.46484211 104.06756544 601.25985554 119.89559356 601.22952485 135.43379474 C601.23255091 137.64994461 601.23644266 139.86609345 601.24111742 142.08224046 C601.25134741 148.1298132 601.24922842 154.17732631 601.24493682 160.22490382 C601.24271535 166.090637 601.24989398 171.95635422 601.25669708 177.82208277 C601.2718874 191.28811064 601.27364733 204.75411962 601.27117405 218.22015427 C601.26933716 228.621953 601.27110929 239.02374558 601.27539849 249.42554355 C601.27600091 250.92309902 601.27660211 252.4206545 601.2772021 253.91820998 C601.27810941 256.17522179 601.27901808 258.43223361 601.27993445 260.68924542 C601.28835633 281.6564452 601.2927049 302.62364268 601.28852773 323.59084392 C601.28837135 324.38023845 601.28821498 325.16963299 601.28805386 325.98294858 C601.28724815 329.9833802 601.28640238 333.98381182 601.28554056 337.98424344 C601.28536947 338.77865951 601.28519838 339.57307559 601.28502211 340.39156487 C601.28467545 341.99806385 601.28432692 343.60456283 601.28397652 345.21106181 C601.27861951 370.20740869 601.28655232 395.2037203 601.30501008 420.20006061 C601.32575129 448.32129234 601.33644886 476.44250223 601.33243459 504.56374204 C601.33203928 507.56525278 601.33167773 510.56676352 601.33133721 513.56827426 C601.33124648 514.30725452 601.33115575 515.04623479 601.33106227 515.80760839 C601.32989907 526.93549898 601.33652328 538.06336741 601.34714913 549.19125247 C601.35922859 561.85388452 601.36072846 574.51646793 601.34835897 587.17910074 C601.34248074 593.63410583 601.34134174 600.08901599 601.35336137 606.54401469 C601.36425499 612.46327733 601.3610755 618.38236617 601.34709968 624.3016208 C601.34446235 626.43266129 601.34678865 628.56371556 601.35483555 630.69474249 C601.41233777 647.0711263 600.30776067 663.24402049 595.46882844 679.00572467 C595.22092561 679.81541705 594.97302278 680.62510943 594.71760774 681.45933795 C589.55091139 697.29496619 581.06724354 711.75410969 569.96882844 724.13072467 C569.18121125 725.01759967 568.39359406 725.90447467 567.58210969 726.81822467 C544.64584451 751.08138122 511.99763171 762.93099112 479.09836555 764.24540758 C471.26945659 764.42670495 463.43942736 764.39241317 455.60896516 764.37364459 C452.97335014 764.37469159 450.33774611 764.37652586 447.70213342 764.37930274 C441.27428156 764.38426238 434.84648124 764.3785743 428.41863581 764.36937462 C420.76594331 764.35890198 413.11326284 764.35987599 405.46056479 764.36103033 C389.75430296 764.36292299 374.04807104 764.35090422 358.34181952 764.33406031 C346.29819889 764.32118823 334.25458034 764.31192499 322.2109549 764.30494952 C276.25373658 764.2776766 230.29660452 764.21988546 184.339444 764.14291026 C178.7087344 764.13351761 173.07802425 764.12453988 167.44731355 764.11583209 C129.74572165 764.05749603 92.04433334 763.97681009 54.34289277 763.85281628 C45.61451441 763.82468134 36.88613608 763.8034939 28.15773225 763.7851131 C17.61989578 763.76266768 7.08215864 763.72953014 -3.45559716 763.68232405 C-8.75075803 763.65878109 -14.04582771 763.63951176 -19.34103942 763.63305926 C-24.15004857 763.62701102 -28.95880138 763.60706861 -33.76771498 763.57643735 C-35.48590094 763.56778728 -37.20412025 763.56392121 -38.92232704 763.56571972 C-72.83703632 763.5900392 -105.52696031 753.90578327 -130.28898406 729.87291217 C-156.90382968 703.25806655 -167.37907973 669.67847295 -167.43240178 632.58737779 C-167.42591929 630.54945768 -167.41914948 628.51153848 -167.41212249 626.47362018 C-167.41558744 624.2555928 -167.42035758 622.03756715 -167.42630422 619.81954503 C-167.4387288 613.78065141 -167.43268306 607.74190157 -167.42334557 601.7030077 C-167.41722301 595.84141018 -167.42527068 589.97984215 -167.43278766 584.11824875 C-167.44851887 571.4031914 -167.44724218 558.68817951 -167.43855092 545.97311793 C-167.43098275 534.84547797 -167.42904414 523.7178546 -167.43261886 512.59021258 C-167.43284801 511.85002165 -167.43307717 511.10983072 -167.43331327 510.34720976 C-167.43424739 507.34199015 -167.4352026 504.33677055 -167.43619256 501.33155096 C-167.44535473 473.18167913 -167.43707275 445.03183612 -167.42090187 416.88196874 C-167.4066667 391.91197481 -167.40794065 366.94202679 -167.42228484 341.97203326 C-167.43837384 313.87127661 -167.44470476 285.7705454 -167.43544805 257.66978478 C-167.434486 254.67026878 -167.43354747 251.67075277 -167.43261886 248.67123675 C-167.43238162 247.93276341 -167.43214439 247.19429007 -167.43189997 246.43343875 C-167.4284979 235.3170292 -167.432459 224.20063813 -167.44005752 213.08423114 C-167.44866089 200.43523798 -167.4464365 187.78629709 -167.43021528 175.13731039 C-167.42235993 168.69026415 -167.41919415 162.2433108 -167.42916274 155.79626536 C-167.43816699 149.88323409 -167.43308321 143.97038094 -167.41723008 138.0573656 C-167.41390639 135.9297634 -167.41552125 133.80214584 -167.42285745 131.67455369 C-167.47673996 114.73532793 -166.65977526 97.54959647 -160.90617156 81.44322467 C-160.60614226 80.58076129 -160.30611297 79.71829791 -159.99699187 78.82969928 C-148.65266486 47.4246472 -126.09258264 25.50736298 -96.31486297 11.17466998 C-80.06919171 3.74827589 -62.24940054 1.22969205 -44.54936004 0.57631183 C-43.41802846 0.53418445 -42.28669689 0.49205707 -41.12108254 0.4486531 C-27.41641828 -0.0156695 -13.71060423 -0.01199869 0 0 Z M-37.37016082 40.52943683 C-39.1182143 40.57811414 -39.1182143 40.57811414 -40.901582 40.62777483 C-66.27659259 41.54682217 -90.94228539 51.28612663 -108.65617156 69.75572467 C-122.55184305 85.9346072 -127.21233047 105.49916292 -127.15980601 126.44781375 C-127.16155905 127.3457649 -127.16331209 128.24371605 -127.16511825 129.16887784 C-127.16975986 132.16942037 -127.16731749 135.16991405 -127.16488433 138.17045856 C-127.16675322 140.34685604 -127.16905424 142.52325319 -127.17174965 144.69964981 C-127.17786429 150.67425248 -127.17773445 156.64884114 -127.17655528 162.62344623 C-127.17635119 169.06940687 -127.18187081 175.51536304 -127.18661284 181.96132159 C-127.19513504 194.58774509 -127.19768059 207.21416461 -127.19822522 219.84059069 C-127.19868503 230.10390068 -127.20074476 240.36720917 -127.20392585 250.63051867 C-127.20482341 253.58641481 -127.20571323 256.54231095 -127.20660073 259.49820709 C-127.20682177 260.23308256 -127.20704282 260.96795803 -127.20727057 261.72510246 C-127.21342345 282.3915025 -127.21737127 303.05790201 -127.21692729 323.72430301 C-127.21691171 324.50323124 -127.21689613 325.28215947 -127.21688008 326.08469159 C-127.21679698 330.03248866 -127.21669794 333.98028573 -127.21659537 337.92808279 C-127.21657543 338.71210831 -127.21655548 339.49613383 -127.21653493 340.3039177 C-127.2164945 341.88940781 -127.2164527 343.47489792 -127.21640954 345.06038803 C-127.21579683 369.7264176 -127.22330319 394.39243341 -127.23698211 419.05845904 C-127.25234944 446.78037651 -127.26094794 474.50228493 -127.26001889 502.22420692 C-127.25994426 505.18136048 -127.25989555 508.13851404 -127.25986457 511.0956676 C-127.25985291 511.82377605 -127.25984126 512.5518845 -127.25982925 513.30205685 C-127.25979851 525.00838858 -127.26617855 536.71470836 -127.27479683 548.42103655 C-127.28328205 560.19018864 -127.28408517 571.9593218 -127.27768751 583.7284753 C-127.27442128 590.10165273 -127.27436944 596.47478691 -127.28304076 602.84796023 C-127.29090194 608.68577535 -127.28947815 614.52351291 -127.28075663 620.36132613 C-127.27922082 622.46961935 -127.28104086 624.57791835 -127.28661671 626.68620476 C-127.35387894 653.93006661 -122.77394463 677.19680007 -104.03117156 698.13072467 C-103.47945281 698.77654498 -102.92773406 699.42236529 -102.35929656 700.08775592 C-88.40668633 715.38727654 -65.06603214 722.6150456 -44.98323321 723.68486762 C-44.20005666 723.72698976 -43.4168801 723.76911191 -42.60997092 723.81251048 C-33.00834324 724.28493572 -23.40910712 724.27271495 -13.79818511 724.26443744 C-11.71046726 724.26630995 -9.62274976 724.26861239 -7.53503281 724.27130276 C-1.84704362 724.27737252 3.84093076 724.27729292 9.52892244 724.27610838 C15.68244175 724.27590315 21.83595645 724.28143466 27.98947358 724.28616595 C40.02578866 724.29444595 52.06209752 724.29723258 64.0984147 724.29777833 C73.88661226 724.29823924 83.67480825 724.30030465 93.4630053 724.30347896 C96.28834341 724.3043766 99.11368151 724.30526641 101.93901962 724.30615383 C102.64154991 724.30637488 103.34408019 724.30659593 104.06789927 724.30682368 C123.80585285 724.31297057 143.54380588 724.31692497 163.28176045 724.3164804 C164.02466987 724.31646482 164.76757929 724.31644924 165.53300111 724.31643319 C169.29773295 724.31635009 173.06246479 724.31625105 176.82719664 724.31614848 C177.57478685 724.31612854 178.32237706 724.31610859 179.09262151 724.31608804 C180.60442718 724.3160476 182.11623285 724.31600581 183.62803852 724.31596265 C207.1476472 724.31534994 230.66724146 724.3228587 254.18684602 724.33653522 C280.65601918 724.35192082 307.12518286 724.3605 333.59436077 724.35957199 C336.42064194 724.35949737 339.24692311 724.35944866 342.07320428 724.35941768 C343.11693616 724.3594002 343.11693616 724.3594002 344.18175353 724.35938236 C355.34019891 724.35935169 366.49863169 724.36571534 377.65707333 724.37434994 C388.88420436 724.38285764 400.11131733 724.38362155 411.33845142 724.37724062 C417.4109187 724.37398619 423.48334064 724.37387972 429.55580354 724.38259387 C435.12783524 724.3905073 440.69978602 724.38897848 446.27181586 724.38030974 C448.27433036 724.37878538 450.27685105 724.38055014 452.27935825 724.38616981 C483.88265129 724.46889834 513.65644924 721.43704016 537.71882844 698.75572467 C552.45882044 683.10542437 561.1501674 661.52387432 561.09746289 640.11027884 C561.09921593 639.20794655 561.10096897 638.30561426 561.10277513 637.37593856 C561.10743918 634.34240818 561.10496855 631.30892565 561.10254121 628.27539325 C561.10440899 626.08238631 561.10670956 623.88937971 561.10940653 621.69637364 C561.11553527 615.66184633 561.11538967 609.62733284 561.11421216 603.59280312 C561.11400841 597.08744625 561.11952445 590.58209386 561.12426972 584.07673907 C561.13280097 571.32691059 561.13533786 558.57708605 561.1358821 545.82725502 C561.13634164 535.46234582 561.13839999 525.09743812 561.14158273 514.7325294 C561.14248028 511.74891414 561.1433701 508.76529888 561.14425761 505.78168362 C561.14447865 505.03993363 561.1446997 504.29818364 561.14492745 503.53395637 C561.15108261 482.66644029 561.15502793 461.79892472 561.15458417 440.93140769 C561.15456859 440.14451754 561.15455301 439.3576274 561.15453696 438.5468921 C561.15445385 434.55863573 561.15435481 430.57037936 561.15425225 426.58212299 C561.15423231 425.79004815 561.15421236 424.9979733 561.15419181 424.18189619 C561.15415138 422.5801255 561.15410958 420.97835482 561.15406642 419.37658413 C561.153454 394.46934844 561.16095367 369.56212638 561.17463899 344.65489459 C561.1900104 316.66745997 561.19860452 288.68003429 561.19767576 260.69259518 C561.19760114 257.70615073 561.19755243 254.71970628 561.19752145 251.73326182 C561.19750979 250.99793296 561.19749814 250.26260411 561.19748613 249.50499255 C561.1974554 237.68638116 561.20383359 225.86778163 561.21245371 214.04917376 C561.22094424 202.16199967 561.22190924 190.27484287 561.21534439 178.38766742 C561.21208052 171.95147994 561.2120177 165.51533527 561.22069764 159.07915187 C561.22856962 153.18128234 561.22712398 147.28348952 561.21841351 141.38562184 C561.21688004 139.25768802 561.21868888 137.12974845 561.22427358 135.00182141 C561.28873482 108.68665518 558.08783849 86.42414208 539.33210969 66.47056842 C522.34165189 49.64861102 499.3307488 41.3260975 475.64496827 40.51366115 C474.69182637 40.47604 473.73868447 40.43841885 472.75665948 40.39965767 C462.88812351 40.03886771 453.02450104 39.99100893 443.15059114 40.00374103 C441.15658103 40.00258503 439.16257115 40.00099431 437.1685617 39.99901378 C431.75781822 39.99488591 426.34709265 39.99688118 420.93634915 40 C415.07380203 40.00228099 409.21125779 39.99876108 403.34871125 39.99602008 C391.88878367 39.99159142 380.42886267 39.99252608 368.96893483 39.99543272 C359.64382061 39.99769908 350.31870779 39.99802018 340.99359345 39.9969089 C339.99590471 39.99679433 339.99590471 39.99679433 338.97806064 39.99667743 C336.27728427 39.99636603 333.57650789 39.99604763 330.87573152 39.99571767 C305.58658985 39.99266501 280.29745175 39.99542152 255.00831064 40.00081457 C232.60908028 40.00555506 210.20985562 40.00513849 187.81062531 40.00035357 C162.57664473 39.99498097 137.34266729 39.99288596 112.10868621 39.99596584 C109.41065399 39.99628649 106.71262177 39.99659934 104.01458955 39.9969089 C103.35039041 39.99698798 102.68619128 39.99706706 102.0018649 39.99714853 C92.03561621 39.99827905 82.06936946 39.99696228 72.10312104 39.99442935 C60.74821163 39.9916067 49.39330911 39.99242095 38.03840047 39.99771009 C32.25846664 40.00031476 26.47854426 40.00140801 20.69861054 39.99806094 C-8.33928607 39.96697352 -8.33928607 39.96697352 -37.37016082 40.52943683 Z " fill="#000000" transform="translate(295.0311715602875,129.8692753314972)"/>
<path d="M0 0 C80.85 0 161.7 0 245 0 C245 6.93 245 13.86 245 21 C241.7 21.226875 238.4 21.45375 235 21.6875 C218.49254974 23.07646848 202.21164553 27.10836479 190.61449891 39.9184885 C184.47269971 47.83687454 183.27129041 56.0085672 183.3742218 65.75805664 C183.36380498 67.61792977 183.36380498 67.61792977 183.35317773 69.51537609 C183.33898424 72.92777723 183.34690138 76.33878706 183.364447 79.75108242 C183.37790132 83.44336689 183.36230932 87.13554632 183.35028076 90.82781982 C183.33329535 97.22118723 183.33423092 103.61434718 183.34728432 110.00772095 C183.36601076 119.28067162 183.3550887 128.55340943 183.33680775 137.82635248 C183.30768151 152.91224369 183.29929873 167.99806877 183.30541992 183.08398438 C183.31126541 197.66602333 183.31237656 212.24803996 183.3034668 226.83007812 C183.30292423 227.72594293 183.30238165 228.62180773 183.30182264 229.54481995 C183.29563689 239.35702713 183.28686537 249.16922872 183.27447033 258.98143005 C183.27337784 259.84789475 183.27228536 260.71435944 183.27115976 261.60708064 C183.26673734 265.07458876 183.26226217 268.54209675 183.25743415 272.00960433 C183.24341444 282.0985415 183.23720929 292.18740427 183.24597003 302.27634871 C183.25121026 308.62359577 183.2497172 314.97081823 183.24326698 321.31806409 C183.23986827 324.96294327 183.23959537 328.6077453 183.2484951 332.25261688 C183.3706937 385.27673847 178.99149605 436.63839227 141 477 C140.20916016 477.88751953 140.20916016 477.88751953 139.40234375 478.79296875 C111.05268183 509.31779654 61.53889796 523.39046589 21.10742188 525.12402344 C-28.92403592 526.41054664 -78.36851006 515.16095798 -115.7109375 480.25390625 C-133.64517457 462.59510968 -146.16906939 441.19857168 -153 417 C-153.3403125 415.86175781 -153.680625 414.72351563 -154.03125 413.55078125 C-160.20288349 388.94996441 -156.73709012 363.67458232 -144 342 C-141.53426582 338.1440614 -138.91118745 334.53033571 -136 331 C-135.48308594 330.36964844 -134.96617187 329.73929688 -134.43359375 329.08984375 C-121.81037489 315.20113929 -101.26902575 307.44085171 -83.01953125 305.71875 C-61.83511702 305.03261513 -44.65079079 313.00186594 -29.25 327.1875 C-15.08934678 341.91355135 -11.49028614 360.16556616 -11.71875 379.81640625 C-11.95862589 387.68553474 -13.45292417 394.5521149 -16 402 C-16.33902344 403.03898437 -16.67804688 404.07796875 -17.02734375 405.1484375 C-20.21117155 413.7821627 -25.44224894 420.77040512 -31 428 C-31.51433594 428.70125 -32.02867187 429.4025 -32.55859375 430.125 C-43.32150211 443.92196264 -59.56773329 450.46040331 -76.3984375 452.578125 C-78.18121094 452.78695312 -78.18121094 452.78695312 -80 453 C-64.3301083 468.34890696 -46.5490922 479.88105856 -25 485 C-24.24589844 485.19207031 -23.49179687 485.38414062 -22.71484375 485.58203125 C-3.22415842 488.58275547 15.32662577 484.32800272 32 474 C34.36975356 472.18944009 36.51575779 470.36085316 38.6171875 468.25 C40 467 40 467 42 467 C42.41185547 466.09894531 42.41185547 466.09894531 42.83203125 465.1796875 C44 463 44 463 46.6875 460.125 C53.43732678 452.32154173 57.11022712 442.69883443 59.8125 432.875 C60.007229 432.19147461 60.20195801 431.50794922 60.40258789 430.80371094 C65.27633818 411.58340818 64.29794775 391.17162719 64.27610838 371.50351965 C64.2736127 367.28207107 64.2826896 363.06064346 64.29014587 358.83920288 C64.30281262 350.59918076 64.30469703 342.35919134 64.30234561 334.11916112 C64.30055483 327.42064458 64.30232824 320.72213788 64.30657005 314.02362251 C64.30746284 312.58787561 64.30746284 312.58787561 64.30837366 311.12312372 C64.30958551 309.17813845 64.31079964 307.23315317 64.31201603 305.2881679 C64.32285859 287.10524081 64.32074349 268.92233233 64.31463119 250.73940421 C64.30945333 234.1194108 64.32074619 217.49947585 64.33972941 200.879494 C64.35911154 183.77832453 64.36736388 166.67718271 64.36360615 149.57600218 C64.36169618 139.98888537 64.36416281 130.40181843 64.37832069 120.81471062 C64.39023951 112.66222512 64.39163298 104.50982027 64.37953053 96.35733365 C64.37364815 92.20195768 64.37252507 88.04672923 64.38453293 83.89136314 C64.39541105 80.08270408 64.39226576 76.27431539 64.37827124 72.46566886 C64.3743854 70.44668154 64.38515481 68.4276821 64.39656812 66.40872329 C64.3259367 54.46809255 62.69213776 44.6757065 54 36 C39.00897304 22.93225067 19.0449687 20.9156235 0 20 C0 13.4 0 6.8 0 0 Z " fill="#000000" transform="translate(445,246)"/>
</svg>
